<?xml version="1.0" encoding="UTF-8"?>
<svg xmlns="http://www.w3.org/2000/svg" version="1.1" width="1600.0" height="800.0">
<rect width="100%" height="100%" fill="white"/>
<circle cx="246.02409638554215" cy="292.9230769230769" r="6" fill="#333"/>
<circle cx="246.02409638554215" cy="507.0769230769231" r="6" fill="#333"/>
<circle cx="799.9999999999999" cy="507.0769230769231" r="6" fill="#333"/>
<circle cx="799.9999999999999" cy="292.9230769230769" r="6" fill="#333"/>
<circle cx="1353.9759036144576" cy="292.9230769230769" r="6" fill="#333"/>
<circle cx="1353.9759036144576" cy="507.0769230769231" r="6" fill="#333"/>
<rect x="777.0" y="28.0" width="46.0" height="24.0" fill="white" stroke="black" stroke-width="1"/>
<text x="800.0" y="44.0" font-size="12" text-anchor="middle" fill="black">0</text>
<rect x="17.0" y="304.9230769230769" width="46.0" height="24.0" fill="white" stroke="black" stroke-width="1"/>
<text x="40.0" y="320.9230769230769" font-size="12" text-anchor="middle" fill="black">1</text>
<rect x="429.0481927710843" y="304.9230769230769" width="46.0" height="24.0" fill="white" stroke="black" stroke-width="1"/>
<text x="452.0481927710843" y="320.9230769230769" font-size="12" text-anchor="middle" fill="black">2</text>
<rect x="17.0" y="388.0" width="46.0" height="24.0" fill="white" stroke="black" stroke-width="1"/>
<text x="40.0" y="404.0" font-size="12" text-anchor="middle" fill="black">3</text>
<rect x="429.0481927710843" y="388.0" width="46.0" height="24.0" fill="white" stroke="black" stroke-width="1"/>
<text x="452.0481927710843" y="404.0" font-size="12" text-anchor="middle" fill="black">4</text>
<rect x="17.0" y="471.0769230769231" width="46.0" height="24.0" fill="white" stroke="black" stroke-width="1"/>
<text x="40.0" y="487.0769230769231" font-size="12" text-anchor="middle" fill="black">5</text>
<rect x="429.0481927710843" y="471.0769230769231" width="46.0" height="24.0" fill="white" stroke="black" stroke-width="1"/>
<text x="452.0481927710843" y="487.0769230769231" font-size="12" text-anchor="middle" fill="black">6</text>
<rect x="570.9759036144577" y="471.0769230769231" width="46.0" height="24.0" fill="white" stroke="black" stroke-width="1"/>
<text x="593.9759036144577" y="487.0769230769231" font-size="12" text-anchor="middle" fill="black">7</text>
<rect x="983.0240963855421" y="471.0769230769231" width="46.0" height="24.0" fill="white" stroke="black" stroke-width="1"/>
<text x="1006.0240963855421" y="487.0769230769231" font-size="12" text-anchor="middle" fill="black">8</text>
<rect x="570.9759036144577" y="388.0" width="46.0" height="24.0" fill="white" stroke="black" stroke-width="1"/>
<text x="593.9759036144577" y="404.0" font-size="12" text-anchor="middle" fill="black">9</text>
<rect x="983.0240963855421" y="388.0" width="46.0" height="24.0" fill="white" stroke="black" stroke-width="1"/>
<text x="1006.0240963855421" y="404.0" font-size="12" text-anchor="middle" fill="black">10</text>
<rect x="570.9759036144577" y="304.9230769230769" width="46.0" height="24.0" fill="white" stroke="black" stroke-width="1"/>
<text x="593.9759036144577" y="320.9230769230769" font-size="12" text-anchor="middle" fill="black">11</text>
<rect x="983.0240963855421" y="304.9230769230769" width="46.0" height="24.0" fill="white" stroke="black" stroke-width="1"/>
<text x="1006.0240963855421" y="320.9230769230769" font-size="12" text-anchor="middle" fill="black">12</text>
<rect x="1124.9518072289154" y="304.9230769230769" width="46.0" height="24.0" fill="white" stroke="black" stroke-width="1"/>
<text x="1147.9518072289154" y="320.9230769230769" font-size="12" text-anchor="middle" fill="black">13</text>
<rect x="1537.0" y="304.9230769230769" width="46.0" height="24.0" fill="white" stroke="black" stroke-width="1"/>
<text x="1560.0" y="320.9230769230769" font-size="12" text-anchor="middle" fill="black">14</text>
<rect x="1124.9518072289154" y="388.0" width="46.0" height="24.0" fill="white" stroke="black" stroke-width="1"/>
<text x="1147.9518072289154" y="404.0" font-size="12" text-anchor="middle" fill="black">15</text>
<rect x="1537.0" y="388.0" width="46.0" height="24.0" fill="white" stroke="black" stroke-width="1"/>
<text x="1560.0" y="404.0" font-size="12" text-anchor="middle" fill="black">16</text>
<rect x="1124.9518072289154" y="471.0769230769231" width="46.0" height="24.0" fill="white" stroke="black" stroke-width="1"/>
<text x="1147.9518072289154" y="487.0769230769231" font-size="12" text-anchor="middle" fill="black">17</text>
<rect x="1537.0" y="471.0769230769231" width="46.0" height="24.0" fill="white" stroke="black" stroke-width="1"/>
<text x="1560.0" y="487.0769230769231" font-size="12" text-anchor="middle" fill="black">18</text>
<rect x="777.0" y="748.0" width="46.0" height="24.0" fill="white" stroke="black" stroke-width="1"/>
<text x="800.0" y="764.0" font-size="12" text-anchor="middle" fill="black">19</text>
<line x1="246.02409638554215" y1="292.9230769230769" x2="246.02409638554215" y2="507.0769230769231" stroke="#1f77b4" stroke-width="2.0" opacity="0.35" stroke-dasharray="4 3"/>
<line x1="246.02409638554215" y1="507.0769230769231" x2="799.9999999999999" y2="507.0769230769231" stroke="#1f77b4" stroke-width="2.0" opacity="0.6"/>
<line x1="799.9999999999999" y1="507.0769230769231" x2="799.9999999999999" y2="292.9230769230769" stroke="#1f77b4" stroke-width="2.0" opacity="0.35" stroke-dasharray="4 3"/>
<line x1="799.9999999999999" y1="292.9230769230769" x2="1353.9759036144576" y2="292.9230769230769" stroke="#1f77b4" stroke-width="2.0" opacity="0.6"/>
<line x1="1353.9759036144576" y1="292.9230769230769" x2="1353.9759036144576" y2="507.0769230769231" stroke="#1f77b4" stroke-width="2.0" opacity="0.35" stroke-dasharray="4 3"/>
</svg>
